:SAMPLES-PER-SECOND 30
:FULLY-SPECIFIED
:DEGREES
795
root  18.5361 38.4826 1.16821 177.399 -29.8043 -177.838
RightUpLeg  -15.137 -8.31002 -2.80207
RightLeg  16.263 9.00284 2.989
RightFoot  -2.0841 -0.529812 6.36693
RightToes  5.82063e-011 0 -3.6325e-017
Spine  4.55763 0.00881431 11.1439
Spine1  9.74274 1.07451 -0.857817
HEad  1.20151 17.8215 -6.14277
LeftShoulder1  0.335944 2.54462 -28.8747
LeftArm  -6.7007 20.361 -42.5557
LeftForeArm  29.4728 -10.0044 -6.79207
LeftHand  -0.0471213 1.0824 1.06492
RightShoulder  -0.701852 -5.62132 26.4879
RightArm  12.4006 -7.3307 43.2949
RightForeArm  2.21722 17.13 4.82271
RightHand  -0.624299 4.91998 -7.31107
LeftUpLeg  1.65379 -7.46755 1.05806
LeftLeg  40.7953 -14.9801 -13.0706
LeftFoot  -5.43447 0.0352401 0.321596
LeftToes  2.58842e-009 -1.78069e-010 3.24654e-012
796
root  18.3677 38.5564 0.437771 178.115 -32.9988 -177.995
RightUpLeg  -14.4223 -10.2787 -3.47612
RightLeg  17.0073 7.90157 3.39069
RightFoot  -3.8624 -0.439681 6.3108
RightToes  5.82063e-011 0 -3.6325e-017
Spine  4.55477 -0.0880083 12.9868
Spine1  9.62877 1.21905 -1.16404
HEad  -2.1473 18.2409 -6.19163
LeftShoulder1  0.237964 2.83118 -29.2474
LeftArm  -4.76453 21.0068 -42.3906
LeftForeArm  29.2343 -12.7749 -6.40835
LeftHand  0.0507507 1.40578 -1.68725
RightShoulder  -0.596006 -5.32992 25.906
RightArm  12.1531 -7.6366 43.1118
RightForeArm  2.78472 14.9835 5.15548
RightHand  -0.525228 4.12301 -6.66987
LeftUpLeg  -3.07959 -6.06756 1.96627
LeftLeg  46.8832 -12.022 -13.0033
LeftFoot  0.451479 0.489907 -4.96325
LeftToes  2.58842e-009 -1.78069e-010 3.24654e-012
797
root  18.2588 38.6175 -0.250608 178.579 -36.3015 -178.236
RightUpLeg  -13.4747 -11.3293 -4.02612
RightLeg  17.7188 5.84917 3.26488
RightFoot  -5.42994 -0.348259 6.02577
RightToes  5.82063e-011 0 -3.6325e-017
Spine  5.00988 -0.0410607 14.0393
Spine1  9.22135 1.40141 -0.930212
HEad  -6.17574 17.9075 -5.69621
LeftShoulder1  0.199523 2.9467 -29.6871
LeftArm  -2.57729 21.1699 -42.2787
LeftForeArm  26.6864 -15.523 -5.72566
LeftHand  0.0308692 1.09975 -1.00945
RightShoulder  -0.566023 -5.2405 25.8324
RightArm  13.5318 -7.40742 42.1878
RightForeArm  4.14041 13.4781 5.74959
RightHand  -0.448202 3.81912 -5.91556
LeftUpLeg  -7.30446 -4.3899 2.43817
LeftLeg  51.5273 -7.61469 -9.68798
LeftFoot  4.66784 0.645976 -4.8172
LeftToes  2.58842e-009 -1.78069e-010 3.24654e-012
798
root  18.1763 38.8057 -0.97762 179.694 -38.8223 -179.421
RightUpLeg  -12.1123 -11.9568 -4.98716
RightLeg  17.1859 4.20415 2.93493
RightFoot  -6.22428 -0.300091 5.7614
RightToes  5.82063e-011 0 -3.6325e-017
Spine  5.74689 0.420736 13.8033
Spine1  8.02731 1.91641 -1.0394
HEad  -9.45688 17.197 -5.51243
LeftShoulder1  0.141813 3.1077 -29.678
LeftArm  -0.854625 20.9417 -42.4679
LeftForeArm  23.4375 -17.8325 -5.01305
LeftHand  0.0204445 0.665609 -0.601996
RightShoulder  -0.581724 -5.28073 25.9918
RightArm  13.1946 -5.99911 41.7456
RightForeArm  7.42926 9.95872 6.521
RightHand  -0.484781 4.24415 -6.11222
LeftUpLeg  -11.015 -1.87766 1.83599
LeftLeg  54.3354 -2.99235 -4.04477
LeftFoot  4.25203 0.304766 -2.40244
LeftToes  2.58842e-009 -1.78069e-010 3.24654e-012
799
root  18.0251 38.9832 -1.70525 -179.019 -40.8824 179.137
RightUpLeg  -10.6606 -12.7159 -6.11129
RightLeg  16.629 3.01727 2.81651
RightFoot  -7.09878 -0.254649 5.56736
RightToes  5.82063e-011 0 -3.6325e-017
Spine  6.19224 1.19829 13.698
Spine1  7.01684 2.81264 -1.63387
HEad  -12.6747 16.227 -4.93916
LeftShoulder1  0.222773 2.87484 -29.288
LeftArm  -0.0113499 20.4401 -43.2009
LeftForeArm  22.2578 -19.4454 -4.5067
LeftHand  0.00460754 0.562013 -0.178293
RightShoulder  -0.60089 -5.33864 26.02
RightArm  12.5612 -5.83103 41.2361
RightForeArm  8.0628 8.28717 6.58906
RightHand  -0.574586 3.73381 -7.56
LeftUpLeg  -13.9775 1.11242 0.80849
LeftLeg  54.984 -0.669295 -0.5635
LeftFoot  3.09676 0.10706 -0.988481
LeftToes  2.58842e-009 -1.78069e-010 3.24654e-012
800
root  17.8566 39.1294 -2.39873 -177.27 -43.8339 177.652
RightUpLeg  -9.43476 -13.4371 -7.21237
RightLeg  15.9695 0.97339 2.60861
RightFoot  -7.88596 -0.220039 5.51425
RightToes  5.82063e-011 0 -3.6325e-017
Spine  6.24658 1.35205 13.2882
Spine1  5.66588 2.92186 -2.16435
HEad  -14.9329 15.3508 -5.00788
LeftShoulder1  0.201415 2.92589 -28.9055
LeftArm  0.854555 19.9765 -43.5438
LeftForeArm  21.5844 -21.1408 -4.09923
LeftHand  0.0356278 0.349338 -0.87134
RightShoulder  -0.580481 -5.26726 26.1114
RightArm  11.7533 -5.90817 40.8979
RightForeArm  6.7833 7.54416 6.37482
RightHand  -0.540325 3.21063 -7.52343
LeftUpLeg  -17.0323 3.15375 -0.541268
LeftLeg  53.4878 -0.537512 -0.304734
LeftFoot  1.86607 0.0408707 -0.481761
LeftToes  2.58842e-009 -1.78069e-010 3.24654e-012
801
root  17.6172 39.2297 -3.08231 -175.804 -46.4517 176.5
RightUpLeg  -8.19302 -13.6835 -7.85825
RightLeg  15.5177 -1.26779 2.17707
RightFoot  -8.74278 -0.185876 5.56439
RightToes  5.82063e-011 0 -3.6325e-017
Spine  6.52755 1.52892 12.2815
Spine1  4.04331 2.68214 -1.14774
HEad  -16.636 14.5865 -6.06882
LeftShoulder1  0.0744524 3.29879 -30.0303
LeftArm  3.32507 19.6636 -42.4951
LeftForeArm  20.3848 -23.5181 -3.96488
LeftHand  -0.00108017 0.568134 -0.0469339
RightShoulder  -0.438146 -4.88025 24.9691
RightArm  11.4617 -6.50811 40.7673
RightForeArm  5.1104 8.17388 6.25096
RightHand  -0.533067 3.23163 -7.40825
LeftUpLeg  -19.3124 5.18083 -1.90867
LeftLeg  49.9537 -1.8777 -1.9291
LeftFoot  0.190374 0.170637 -1.68134
LeftToes  2.58842e-009 -1.78069e-010 3.24654e-012
802
root  17.2807 39.2761 -3.74203 -174.266 -49.0825 175.285
RightUpLeg  -6.84188 -14.2986 -8.63302
RightLeg  15.1533 -3.24924 2.09326
RightFoot  -9.8301 -0.141766 5.70797
RightToes  5.82063e-011 0 -3.6325e-017
Spine  5.65853 1.71882 12.164
Spine1  3.87215 2.77927 -1.7312
HEad  -18.4523 14.1442 -5.88062
LeftShoulder1  0.132619 3.13052 -29.3459
LeftArm  1.60025 19.4849 -43.4643
LeftForeArm  23.0532 -24.939 -4.11569
LeftHand  0.0151421 0.22249 -0.376508
RightShoulder  -0.483606 -5.01231 25.2157
RightArm  11.2741 -5.79738 40.2398
RightForeArm  4.1773 8.38476 6.17947
RightHand  -0.503732 3.16347 -7.07039
LeftUpLeg  -20.9914 6.86325 -3.5946
LeftLeg  44.8645 -4.20365 -4.07472
LeftFoot  -1.17102 0.167039 -1.82855
LeftToes  2.58842e-009 -1.78069e-010 3.24654e-012
803
root  16.9392 39.3105 -4.35955 -172.666 -51.525 174.139
RightUpLeg  -5.58072 -14.6721 -9.1656
RightLeg  14.6329 -5.18828 1.98988
RightFoot  -10.8094 -0.102189 6.15058
RightToes  5.82063e-011 0 -3.6325e-017
Spine  4.56475 2.02987 12.233
Spine1  4.17911 3.04067 -2.60031
HEad  -20.1382 13.4095 -5.45954
LeftShoulder1  0.226679 2.86535 -29.4061
LeftArm  1.31889 18.6888 -43.4965
LeftForeArm  23.7465 -26.2099 -4.35778
LeftHand  -0.0151002 -0.404297 0.339253
RightShoulder  -0.544576 -5.19282 25.4654
RightArm  11.4522 -5.26133 39.7869
RightForeArm  3.57487 9.79533 6.06755
RightHand  -0.476807 3.59992 -6.40257
LeftUpLeg  -22.2539 8.73641 -5.36349
LeftLeg  38.3343 -5.67699 -4.4637
LeftFoot  -1.98354 0.206475 -2.45509
LeftToes  2.58842e-009 -1.78069e-010 3.24654e-012
804
root  16.5647 39.3733 -4.94232 -171.161 -53.5867 173.088
RightUpLeg  -4.14935 -14.6975 -9.46941
RightLeg  13.5997 -7.03525 1.85915
RightFoot  -11.3582 -0.0762306 6.51985
RightToes  5.82063e-011 0 -3.6325e-017
Spine  3.91587 2.25434 11.7799
Spine1  3.9421 3.14843 -3.07141
HEad  -21.1455 12.2351 -5.65484
LeftShoulder1  0.258713 2.76789 -29.0264
LeftArm  1.45349 18.5106 -43.9208
LeftForeArm  23.3953 -26.9836 -4.54676
LeftHand  -0.0527212 -1.13616 1.06813
RightShoulder  -0.549826 -5.20948 25.4512
RightArm  12.0637 -4.70213 39.5844
RightForeArm  3.32384 11.2839 5.96162
RightHand  -0.416154 3.92331 -5.43971
LeftUpLeg  -22.7257 10.8828 -7.20943
LeftLeg  29.9575 -5.95354 -3.30669
LeftFoot  -1.69399 0.193788 -2.16933
LeftToes  2.58842e-009 -1.78069e-010 3.24654e-012
805
root  16.1496 39.4432 -5.49186 -169.67 -55.2912 172.067
RightUpLeg  -2.59847 -14.6935 -9.74441
RightLeg  12.1503 -8.70897 1.92459
RightFoot  -11.6379 -0.0615392 6.83333
RightToes  5.82063e-011 0 -3.6325e-017
Spine  2.78512 2.50541 10.9112
Spine1  4.48525 3.2013 -3.03807
HEad  -22.7878 12.8255 -6.4233
LeftShoulder1  0.245071 2.81013 -29.2384
LeftArm  1.33834 18.3076 -43.9496
LeftForeArm  23.7815 -27.6958 -4.68401
LeftHand  -0.0394816 -1.49865 0.78812
RightShoulder  -0.491971 -5.042 25.1531
RightArm  12.3792 -3.76905 39.6805
RightForeArm  2.2034 12.4192 5.81725
RightHand  -0.483611 4.08693 -6.21168
LeftUpLeg  -22.2112 12.5156 -8.8794
LeftLeg  19.7437 -4.98673 -1.85848
LeftFoot  -1.13611 0.225994 -2.45555
LeftToes  2.58842e-009 -1.78069e-010 3.24654e-012
806
root  15.6945 39.4683 -6.02834 -168.307 -56.5397 171.307
RightUpLeg  -1.37536 -14.6333 -9.84275
RightLeg  10.9795 -9.92224 2.07468
RightFoot  -11.8687 -0.0495097 6.77708
RightToes  5.82063e-011 0 -3.6325e-017
Spine  1.97824 2.79137 9.99279
Spine1  4.48597 3.38608 -3.19394
HEad  -22.7288 11.586 -5.11112
LeftShoulder1  0.292182 2.66423 -28.6695
LeftArm  1.0316 18.4127 -44.6169
LeftForeArm  24.0625 -27.6972 -4.66945
LeftHand  -0.0116973 -0.410438 0.284682
RightShoulder  -0.520401 -5.12298 25.3334
RightArm  13.2683 -2.49503 39.7623
RightForeArm  1.57847 13.4014 5.81528
RightHand  -0.481484 3.02686 -6.85879
LeftUpLeg  -20.8366 8.99163 -8.32891
LeftLeg  8.64618 2.84846 -1.45944
LeftFoot  -0.371083 0.233205 -2.40575
LeftToes  2.58842e-009 -1.78069e-010 3.24654e-012
807
root  15.1376 39.4182 -6.5567 -167.785 -57.6796 171.35
RightUpLeg  -0.0713902 -14.5037 -9.64826
RightLeg  10.3288 -10.8954 2.2783
RightFoot  -12.4811 -0.0133879 7.13956
RightToes  5.82063e-011 0 -3.6325e-017
Spine  1.27782 2.95587 9.20672
Spine1  4.24858 3.33875 -2.73286
HEad  -23.1204 11.9883 -4.63633
LeftShoulder1  0.254546 2.78115 -29.0882
LeftArm  2.54784 18.2658 -44.169
LeftForeArm  22.8814 -26.6195 -4.49401
LeftHand  -0.0437384 -0.879709 0.905308
RightShoulder  -0.48426 -5.02134 25.0698
RightArm  13.3465 -1.71091 40.1652
RightForeArm  0.863938 14.2977 5.6338
RightHand  -0.530287 3.72589 -6.9948
LeftUpLeg  -19.2355 -0.770812 -4.81292
LeftLeg  -1.47828 17.2406 -3.42079
LeftFoot  -0.146461 0.240951 -2.45899
LeftToes  2.58842e-009 -1.78069e-010 3.24654e-012
808
root  14.4375 39.2382 -7.06261 -167.664 -58.6423 171.812
RightUpLeg  0.987447 -14.6719 -9.44568
RightLeg  10.6285 -11.6493 2.41876
RightFoot  -13.9228 0.0810387 7.77061
RightToes  5.82063e-011 0 -3.6325e-017
Spine  -0.00740799 3.16438 8.80281
Spine1  4.57196 3.34339 -2.49403
HEad  -23.128 12.7205 -4.42644
LeftShoulder1  0.254065 2.78211 -29.0928
LeftArm  3.73697 18.3294 -44.166
LeftForeArm  22.0727 -25.1059 -4.19165
LeftHand  -0.0594526 -0.732043 1.17995
RightShoulder  -0.510902 -5.0947 25.2987
RightArm  13.1126 -0.935659 40.6042
RightForeArm  0.321651 15.1383 5.41679
RightHand  -0.602977 4.77661 -7.16414
LeftUpLeg  -19.7699 -2.273 -5.13579
LeftLeg  -6.32945 21.8905 -2.72318
LeftFoot  -1.54991 0.308306 -3.4923
LeftToes  2.58842e-009 -1.78069e-010 3.24654e-012
809
root  13.6482 39.0172 -7.55695 -167.647 -59.8548 172.443
RightUpLeg  1.94101 -15.1305 -9.40994
RightLeg  11.5741 -11.7757 2.68529
RightFoot  -15.402 0.204154 8.69335
RightToes  5.82063e-011 0 -3.6325e-017
Spine  -1.51937 3.21128 8.20261
Spine1  4.91937 3.09138 -1.71722
HEad  -22.9524 12.2906 -3.96291
LeftShoulder1  0.198598 2.95119 -29.7907
LeftArm  5.44867 17.8446 -43.4676
LeftForeArm  20.4993 -23.0532 -3.99857
LeftHand  0.0012254 0.313534 -0.0520808
RightShoulder  -0.458859 -4.95808 24.6859
RightArm  12.6285 -0.84939 41.8021
RightForeArm  0.679489 16.0349 5.13457
RightHand  -0.515006 4.57948 -6.28238
LeftUpLeg  -20.8111 -3.42752 -5.14117
LeftLeg  -7.8595 25.3997 -2.33013
LeftFoot  -2.01433 0.333402 -3.87635
LeftToes  2.58842e-009 -1.78069e-010 3.24654e-012
